<?xml version="1.0" encoding="UTF-8"?>
<!DOCTYPE svg PUBLIC "-//W3C//DTD SVG 1.1//EN" "http://www.w3.org/Graphics/SVG/1.1/DTD/svg11.dtd">
<!-- Creator: CorelDRAW -->
<svg xmlns="http://www.w3.org/2000/svg" xml:space="preserve" width="1000px" height="1000px" style="shape-rendering:geometricPrecision; text-rendering:geometricPrecision; image-rendering:optimizeQuality; fill-rule:evenodd; clip-rule:evenodd"
viewBox="0 0 1000 1000"
 xmlns:xlink="http://www.w3.org/1999/xlink">
 <defs>
  <style type="text/css">
   <![CDATA[
    .fil0 {fill:none}
    .fil2 {fill:#04523A}
    .fil1 {fill:#D56154}
   ]]>
  </style>
 </defs>
 <g id="Слой_x0020_1">
  <metadata id="CorelCorpID_0Corel-Layer"/>
  <rect class="fil0" x="2.6226e-005" y="1.53229e-005" width="1000" height="1000"/>
  <path class="fil1" d="M128.443 825.905l48.6301 -117.535c11.8887,7.59136 26.6279,10.798 44.8063,10.508 15.9368,-0.328341 39.8077,34.241 36.4236,55.2197 -3.32515,21.3338 -12.0857,36.2032 -29.3676,51.6603l-100.492 0.146919z"/>
  <path class="fil1" d="M272.129 826.052c28.5568,-50.5818 18.5474,-115.441 -38.4109,-137.626 -19.5419,-6.48613 -48.3396,7.59637 -81.9862,-36.2071 -12.5621,-2.53713 -22.4802,-3.75199 -27.9908,-17.308l-9.54972 -32.7629c24.034,3.32793 39.9869,-1.13083 55.7929,-16.4621 11.9255,-12.6072 17.6803,-22.5698 39.7432,-33.8553 -5.47829,-13.4236 -8.44727,-29.8596 -10.0094,-47.9862 29.1773,4.23783 48.3641,21.8453 63.7304,41.8028l-1.31893 -17.6625c106.792,-27.4504 189.443,-12.5081 276.216,20.0973l74.9959 183.623c-6.5134,6.0565 -5.75209,12.3829 -1.68344,18.8306 3.17433,5.10153 7.68374,16.2217 11.2771,4.22224l8.47621 10.1942c-14.2828,6.31194 -22.2482,-2.06855 -28.7443,-16.3258 0.14358,28.1594 -7.85403,53.5279 -21.4212,76.9848l-26.7392 0.146919c7.81953,-22.2671 11.7446,-42.7294 3.48876,-57.5482 -26.8884,-15.0141 -58.7146,-47.8421 -67.4162,-97.15 -2.42917,27.6858 1.54487,52.8813 13.2477,75.0705 -47.5939,17.0748 -102.253,21.1964 -158.678,4.41591 -11.9455,-4.22169 -23.5966,53.3794 -42.9014,75.6526l-30.1183 -0.146919zm-83.8906 -227.871c3.67297,-6.5134 12.3412,-20.5196 20.7155,-19.9809 10.5292,1.95892 13.2717,15.6713 13.5165,21.744 -10.1769,-9.55862 -21.6983,-9.34214 -34.2321,-1.76302z"/>
  <path class="fil1" d="M261.541 492.362l127.389 -321.568 85.0659 214.648 -38.4677 99.5602c-59.1231,-8.81846 -117.216,-7.32757 -173.987,7.35985z"/>
  <path class="fil2" d="M699.01 826.205l-63.1105 -156.034c-3.2439,-6.34422 -3.7609,-13.2049 0.881512,-17.9241 11.9127,-10.2237 47.5577,-13.2811 68.9049,2.3507 17.5813,11.2148 49.5606,-19.4422 47.014,-54.5068 -38.1193,-4.81715 -60.9301,-27.2979 -85.2129,-63.9096 31.0266,-4.5773 53.2302,-22.6772 43.6349,-70.6679 -7.78669,31.4406 -23.6539,44.6633 -51.5685,53.7722 21.646,-13.5655 30.657,-37.4153 22.1847,-59.649 -11.2309,50.8667 -78.8141,50.3681 -105.785,58.044l-148.972 -368.63 177.478 -0.587675 272.093 677.442 -177.542 0.300516z"/>
  <path class="fil2" d="M671.307 577.612l-20.7155 -2.05686c-5.1505,-0.80694 -8.2408,-16.7771 1.17535,-18.8056 5.40761,-0.949963 17.0064,9.91924 19.5402,20.8625z"/>
 </g>
</svg>
